<svg width="116" height="70" viewBox="0 0 116 70" fill="none" xmlns="http://www.w3.org/2000/svg">
<path fill-rule="evenodd" clip-rule="evenodd" d="M116.001 34.5006C116.001 33.4841 115.564 32.5092 114.788 31.7904C114.011 31.0716 112.957 30.6678 111.858 30.6678H14.1503L40.224 6.55138C40.6092 6.19501 40.9147 5.77195 41.1231 5.30634C41.3316 4.84072 41.4389 4.34168 41.4389 3.83771C41.4389 3.33373 41.3316 2.83469 41.1231 2.36908C40.9147 1.90347 40.6092 1.4804 40.224 1.12404C39.8388 0.767673 39.3816 0.484991 38.8783 0.292128C38.3751 0.0992655 37.8357 0 37.291 0C36.7463 0 36.2069 0.0992655 35.7037 0.292128C35.2005 0.484991 34.7432 0.767673 34.358 1.12404L1.21705 31.787C0.831264 32.143 0.525183 32.566 0.316341 33.0316C0.107499 33.4973 0 33.9965 0 34.5006C0 35.0048 0.107499 35.504 0.316341 35.9696C0.525183 36.4353 0.831264 36.8583 1.21705 37.2143L34.358 67.8772C34.7432 68.2336 35.2005 68.5163 35.7037 68.7091C36.2069 68.902 36.7463 69.0013 37.291 69.0013C37.8357 69.0013 38.3751 68.902 38.8783 68.7091C39.3816 68.5163 39.8388 68.2336 40.224 67.8772C40.6092 67.5209 40.9147 67.0978 41.1231 66.6322C41.3316 66.1666 41.4389 65.6675 41.4389 65.1636C41.4389 64.6596 41.3316 64.1605 41.1231 63.6949C40.9147 63.2293 40.6092 62.8062 40.224 62.4499L14.1503 38.3335H111.858C112.957 38.3335 114.011 37.9297 114.788 37.2109C115.564 36.4921 116.001 35.5172 116.001 34.5006Z" fill="#3F639A"/>
</svg>
