<svg width="105" height="117" viewBox="0 0 105 117" fill="none" xmlns="http://www.w3.org/2000/svg">
<path d="M72.1914 0L69.5604 3.22564C63.6688 10.48 58.8119 13.7236 54.7692 15.8456C50.7265 17.9631 47.3295 18.5957 43.9926 21.4535C40.4352 24.5041 35.2655 30.3542 33.0877 40.7983C28.4193 41.9379 25.0023 43.9387 22.3071 46.5453C19.6441 49.1204 17.6388 52.05 15.1682 55.2397C15.1482 55.2756 15.1802 55.3429 15.1682 55.3788C11.6228 59.9369 8.5226 64.8449 2.50665 67.4379L0 68.5595V116.505H76.4547C80.8383 116.24 83.8784 112.844 85.7273 109.492C87.5722 106.146 88.5949 102.521 89.1123 99.5418C90.4438 91.951 92.8702 70.0983 92.8702 70.0983L92.9986 69.6811V69.2594C92.8702 66.2266 91.7553 63.6515 90.3636 61.2648L94.8755 46.2671L102.022 34.208L104.028 30.9823L101.393 28.322L75.075 2.80393L72.1914 0ZM72.4441 12.3373L93.3715 32.6692L87.8569 41.7764L87.4839 42.2025L87.3556 42.9024L83.722 54.9571C81.8249 54.0822 79.8718 53.4676 77.706 53.5574H77.4533L52.1382 53.6964H48.1276V71.0808C47.5661 75.9709 45.1357 77.8641 42.1116 79.2145C41.109 79.6676 40.9847 79.4208 40.1063 79.6317V53.5618C39.4486 36.9312 44.7426 32.1443 48.8816 28.6046C50.0246 27.6221 53.3735 26.4871 58.1542 23.9792C62.1488 21.8752 67.1139 18.1067 72.4441 12.3418V12.3373ZM32.3377 50.8925C32.3217 51.9109 32.0369 52.6287 32.0851 53.6964V89.5868H36.0957C36.0957 89.5868 40.3871 89.5329 44.9953 87.4827C49.5995 85.4325 55.1622 80.6321 56.1489 72.2024V62.669L77.706 62.5299H77.8303C79.5909 62.4221 81.318 63.099 82.6334 64.4123C83.9489 65.7257 84.7455 67.5686 84.849 69.5375C84.8329 69.6093 84.6484 71.2737 84.6003 71.6416H68.1808V80.6142H83.5976C83.1725 84.0821 82.7835 86.2579 82.3423 89.5868H68.1808V98.5593H81.091C80.6171 100.73 79.856 102.809 78.833 104.728C77.7381 106.724 76.7956 107.478 75.9534 107.532H8.02127V74.0238C14.5225 70.1656 18.5652 64.6161 21.1802 61.2693C23.8913 57.7969 25.7523 55.1679 27.5731 53.4183C28.7643 52.2788 30.6292 51.6282 32.3377 50.8925Z" fill="#CF1D1D"/>
</svg>
