<svg width="109" height="121" viewBox="0 0 109 121" fill="none" xmlns="http://www.w3.org/2000/svg">
<path d="M36.8191 33.0203C36.2886 28.1782 34.0901 25.0144 30.445 25.0144C27.0977 25.0144 23.8076 26.8511 22.258 34.3129C22.258 34.3129 17.7332 51.8009 17.7332 57.9655C17.7893 60.8402 18.2895 63.6773 19.2084 66.3318L31.1836 114.28C31.3968 115.42 31.9099 116.446 32.6466 117.207C33.3834 117.968 34.3045 118.423 35.2733 118.504C35.7019 118.47 36.1204 118.332 36.504 118.099C36.8876 117.867 37.2286 117.544 37.5068 117.15C37.785 116.756 37.9949 116.299 38.1239 115.806C38.2529 115.313 38.2985 114.794 38.258 114.28L32.1836 60.84" stroke="#CF1D1D" stroke-width="4" stroke-linecap="round" stroke-linejoin="round"/>
<path d="M53.0577 52.9581H40.1893C39.1064 53.0598 38.0266 52.719 37.1248 51.9906C36.2229 51.2623 35.5517 50.1891 35.2199 48.9448L29.8649 33.9915" stroke="#CF1D1D" stroke-width="4" stroke-linecap="round" stroke-linejoin="round"/>
<path d="M19.5194 87.7827L17.1701 96.5508C17.1701 96.5508 10.3571 111.961 9.25022 114.073C8.68745 115.336 7.73081 116.279 6.59062 116.693C5.45043 117.108 4.22005 116.961 3.17 116.284C1.47914 114.934 1.72915 111.383 3.22725 108.141C4.191 106.051 11.0403 87.0342 11.0403 87.0342L14.6262 70.4324" stroke="#CF1D1D" stroke-width="4" stroke-linecap="round" stroke-linejoin="round"/>
<path d="M96.165 84.9242L98.0734 105.521C98.5372 109.252 100.03 110.87 102.207 110.87C104.503 110.87 106.028 108.166 106.028 104.102C106.028 104.102 104.974 80.725 104.615 75.1206C104.257 69.5163 100.159 66.0908 93.7108 66.0908" stroke="#CF1D1D" stroke-width="4" stroke-linecap="round" stroke-linejoin="round"/>
<path d="M48.7257 72.6066C45.2845 77.7197 43.4431 84.123 43.5225 90.7013C43.6018 97.2796 45.5967 103.616 49.1598 108.607C52.7229 113.598 57.6283 116.926 63.0217 118.014C68.415 119.101 73.9545 117.878 78.6753 114.557C83.3961 111.236 86.999 106.028 88.8565 99.8406C90.7141 93.6528 90.7085 86.8772 88.8407 80.6938C86.9729 74.5105 83.3614 69.3113 78.6351 66.0019C73.9089 62.6924 68.3673 61.4824 62.9758 62.5826" stroke="#CF1D1D" stroke-width="4" stroke-linecap="round" stroke-linejoin="round"/>
<path d="M56.3613 90.2049C56.3339 92.7132 56.9254 95.1749 58.061 97.2787C59.1966 99.3826 60.8253 101.034 62.7411 102.024C64.6568 103.014 66.7737 103.299 68.8239 102.842C70.874 102.384 72.7655 101.206 74.259 99.4556C75.7524 97.7051 76.7809 95.4611 77.2143 93.0073C77.6476 90.5536 77.4664 88.0004 76.6936 85.6705C75.9207 83.3407 74.5909 81.3389 72.8724 79.9184C71.1538 78.4978 69.1237 77.7222 67.0388 77.6898" stroke="#CF1D1D" stroke-width="4" stroke-linecap="round" stroke-linejoin="round"/>
<path d="M52.968 59.8068V70.903C52.968 74.3882 54.3535 75.8875 56.1818 75.8875C58.0788 75.8875 59.2582 73.7431 59.2582 70.6803V69.1466" stroke="#CF1D1D" stroke-width="4" stroke-linecap="round" stroke-linejoin="round"/>
<path d="M63.4128 54.9899H66.4644C71.4577 54.9421 76.3627 56.5755 80.6248 59.7058L79.4854 49.971L78.348 40.9963C78.2368 39.5028 77.7175 38.0958 76.8712 36.9951C76.025 35.8943 74.8994 35.1618 73.6705 34.9121L65.6323 33.6952C62.472 33.2406 60.3308 33.81 59.4376 35.9774L54.7906 46.3044" stroke="#CF1D1D" stroke-width="4" stroke-linecap="round" stroke-linejoin="round"/>
<path d="M37.2943 18.2689C41.0286 18.2689 44.0559 14.627 44.0559 10.1345C44.0559 5.64192 41.0286 2 37.2943 2C33.56 2 30.5327 5.64192 30.5327 10.1345C30.5327 14.627 33.56 18.2689 37.2943 18.2689Z" stroke="#CF1D1D" stroke-width="4" stroke-linecap="round" stroke-linejoin="round"/>
<path d="M70.9664 26.6031C74.7007 26.6031 77.7279 22.9612 77.7279 18.4687C77.7279 13.9761 74.7007 10.3342 70.9664 10.3342C67.2321 10.3342 64.2048 13.9761 64.2048 18.4687C64.2048 22.9612 67.2321 26.6031 70.9664 26.6031Z" stroke="#CF1D1D" stroke-width="4" stroke-linecap="round" stroke-linejoin="round"/>
</svg>
