<svg width="47" height="57" viewBox="0 0 47 57" fill="none" xmlns="http://www.w3.org/2000/svg">
<path d="M23.3334 0C10.4465 0 0 12.6685 0 28.2964C0 43.9242 10.4465 56.5928 23.3334 56.5928C36.2202 56.5928 46.6667 43.9242 46.6667 28.2964C46.6667 12.6685 36.2202 0 23.3334 0ZM17.6216 40.0247H12.8965V21.5848H17.6216V40.0247ZM15.2299 19.3211C13.7375 19.3211 12.7726 18.0389 12.7726 16.4532C12.7726 14.835 13.7667 13.5911 15.2907 13.5911C16.8146 13.5911 17.7479 14.835 17.7771 16.4532C17.7771 18.0389 16.8146 19.3211 15.2299 19.3211ZM34.8785 40.0247H30.1535V29.8055C30.1535 27.4269 29.4681 25.8116 27.7594 25.8116C26.4542 25.8116 25.6789 26.9051 25.3362 27.9574C25.2098 28.3318 25.1782 28.8623 25.1782 29.3899V40.0217H20.4507V27.4652C20.4507 25.1632 20.39 23.2384 20.3268 21.5819H24.432L24.6483 24.1433H24.7431C25.3653 22.9407 26.8893 21.1663 29.4389 21.1663C32.5476 21.1663 34.8785 23.6923 34.8785 29.1217V40.0247Z" fill="white"/>
</svg>
