<svg width="32" height="25" viewBox="0 0 32 25" fill="none" xmlns="http://www.w3.org/2000/svg">
<path d="M29.0185 0H2.23219C1.64018 0 1.07241 0.254827 0.653793 0.708423C0.235176 1.16202 0 1.77723 0 2.41871V21.7684C0 22.4098 0.235176 23.0251 0.653793 23.4787C1.07241 23.9322 1.64018 24.1871 2.23219 24.1871H29.0185C29.6105 24.1871 30.1783 23.9322 30.5969 23.4787C31.0155 23.0251 31.2507 22.4098 31.2507 21.7684V2.41871C31.2507 1.77723 31.0155 1.16202 30.5969 0.708423C30.1783 0.254827 29.6105 0 29.0185 0V0ZM26.5631 2.41871L15.6253 10.6181L4.6876 2.41871H26.5631ZM2.23219 21.7684V3.51922L14.9892 13.0852C15.176 13.2256 15.398 13.3009 15.6253 13.3009C15.8527 13.3009 16.0747 13.2256 16.2615 13.0852L29.0185 3.51922V21.7684H2.23219Z" fill="white"/>
</svg>
