<svg width="28" height="33" viewBox="0 0 28 33" fill="none" xmlns="http://www.w3.org/2000/svg">
<path d="M21.1674 17.6159C21.0339 17.4569 20.8754 17.3307 20.7008 17.2446C20.5263 17.1585 20.3392 17.1141 20.1502 17.1141C19.9613 17.1141 19.7742 17.1585 19.5996 17.2446C19.4251 17.3307 19.2665 17.4569 19.133 17.6159L16.8396 20.3439C15.7764 19.9674 13.7923 19.1117 12.5348 17.6159C11.2774 16.1201 10.558 13.7601 10.2414 12.4954L12.5348 9.76738C12.6686 9.60858 12.7747 9.41998 12.847 9.21236C12.9194 9.00474 12.9567 8.78218 12.9567 8.55741C12.9567 8.33265 12.9194 8.11008 12.847 7.90246C12.7747 7.69484 12.6686 7.50624 12.5348 7.34744L6.77977 0.501788C6.64627 0.34272 6.48772 0.216524 6.31317 0.130421C6.13863 0.0443189 5.95152 0 5.76257 0C5.57361 0 5.3865 0.0443189 5.21196 0.130421C5.03742 0.216524 4.87886 0.34272 4.74536 0.501788L0.843428 5.14314C0.296697 5.79348 -0.0111986 6.68684 0.000311557 7.59902C0.0334032 10.0361 0.575818 18.5007 6.18412 25.1718C11.7924 31.8429 18.9086 32.4864 20.9588 32.5275H20.9991C21.7588 32.5275 22.4767 32.1715 23.0206 31.5246L26.9225 26.8832C27.0562 26.7244 27.1623 26.5358 27.2347 26.3282C27.3071 26.1206 27.3443 25.898 27.3443 25.6733C27.3443 25.4485 27.3071 25.2259 27.2347 25.0183C27.1623 24.8107 27.0562 24.6221 26.9225 24.4633L21.1674 17.6159ZM20.9847 29.1029C19.1891 29.067 13.0456 28.4937 8.21854 22.7502C3.37565 16.9895 2.90662 9.65614 2.87784 7.56308L5.76257 4.1317L9.48321 8.55741L7.62289 10.7703C7.45378 10.9713 7.32944 11.2192 7.26112 11.4917C7.19279 11.7643 7.18262 12.0527 7.23154 12.3311C7.26608 12.5279 8.11063 17.1949 10.499 20.0359C12.8873 22.8768 16.8108 23.8814 16.9763 23.9225C17.2102 23.9823 17.4529 23.9712 17.6822 23.8901C17.9115 23.8091 18.12 23.6607 18.2885 23.4587L20.1502 21.2458L23.8709 25.6715L20.9847 29.1029V29.1029Z" fill="white"/>
</svg>
