<svg width="24" height="36" viewBox="0 0 24 36" fill="none" xmlns="http://www.w3.org/2000/svg">
<path d="M11.7188 21.0179C14.9503 21.0179 17.5783 17.8757 17.5783 14.0119C17.5783 10.1482 14.9503 7.00598 11.7188 7.00598C8.48734 7.00598 5.85938 10.1482 5.85938 14.0119C5.85938 17.8757 8.48734 21.0179 11.7188 21.0179ZM11.7188 10.509C13.3346 10.509 14.6486 12.08 14.6486 14.0119C14.6486 15.9438 13.3346 17.5149 11.7188 17.5149C10.1031 17.5149 8.7891 15.9438 8.7891 14.0119C8.7891 12.08 10.1031 10.509 11.7188 10.509Z" fill="white"/>
<path d="M10.8694 34.7039C11.1173 34.9156 11.4144 35.0294 11.719 35.0294C12.0237 35.0294 12.3207 34.9156 12.5686 34.7039C13.014 34.3274 23.4804 25.2914 23.4379 14.0119C23.4379 6.28608 18.1805 0 11.719 0C5.25752 0 0.000128963 6.28608 0.000128963 14.0031C-0.042352 25.2914 10.4241 34.3274 10.8694 34.7039ZM11.719 3.50297C16.5663 3.50297 20.5082 8.21622 20.5082 14.0206C20.539 21.7937 14.0804 28.7734 11.719 31.0626C9.35913 28.7716 2.89909 21.7902 2.92985 14.0119C2.92985 8.21622 6.8718 3.50297 11.719 3.50297Z" fill="white"/>
</svg>
